<svg xmlns="http://www.w3.org/2000/svg" viewBox="0 0 240 240">
  <defs>
    <linearGradient id="flameBack" x1="0%" y1="100%" x2="0%" y2="0%">
      <stop offset="0%" stop-color="#6B21A8"/>
      <stop offset="55%" stop-color="#A855F7"/>
      <stop offset="100%" stop-color="#C4A8FF"/>
    </linearGradient>
    <linearGradient id="flameFront" x1="0%" y1="100%" x2="0%" y2="0%">
      <stop offset="0%" stop-color="#4C1078"/>
      <stop offset="55%" stop-color="#6B21A8"/>
      <stop offset="100%" stop-color="#A855F7"/>
    </linearGradient>
  </defs>
  <path d="M 85 220 C 60 200, 50 165, 65 130 C 70 142, 78 142, 80 130 C 75 100, 92 70, 112 45 C 105 75, 118 92, 128 98 C 138 108, 132 138, 117 150 C 127 162, 132 185, 117 215 C 107 220, 95 222, 85 220 Z" fill="url(#flameBack)" opacity="0.85"/>
  <path d="M 145 225 C 120 205, 110 170, 125 130 C 130 144, 138 144, 140 130 C 135 95, 154 60, 178 30 C 170 64, 184 86, 196 92 C 210 105, 202 138, 184 150 C 196 165, 198 188, 180 218 C 170 224, 158 226, 145 225 Z" fill="url(#flameFront)"/>
</svg>
